<?xml version="1.0" standalone="no"?>
<!DOCTYPE svg PUBLIC "-//W3C//DTD SVG 20010904//EN"
 "http://www.w3.org/TR/2001/REC-SVG-20010904/DTD/svg10.dtd">
<svg version="1.0" xmlns="http://www.w3.org/2000/svg"
 width="450.000000pt" height="450.000000pt" viewBox="0 0 450.000000 450.000000"
 preserveAspectRatio="xMidYMid meet">
<metadata>
Created by potrace 1.14, written by Peter Selinger 2001-2017
</metadata>
<g transform="translate(0.000000,450.000000) scale(0.100000,-0.100000)"
fill="#000000" stroke="none">
<path d="M2083 4344 c-32 -30 -76 -69 -99 -86 -40 -32 -107 -116 -137 -173
-54 -105 -71 -166 -71 -271 l-1 -62 -65 -30 c-151 -71 -280 -180 -302 -256
-14 -48 -18 -124 -7 -147 4 -9 1 -34 -7 -58 -10 -30 -11 -47 -4 -61 9 -17 4
-23 -32 -47 -71 -46 -189 -155 -215 -198 -7 -11 -24 -40 -39 -65 -27 -44 -41
-134 -23 -146 5 -2 6 -10 3 -17 -2 -7 6 -29 18 -48 18 -25 23 -47 22 -84 -2
-65 11 -99 44 -122 31 -20 44 -23 53 -10 4 5 16 -7 28 -27 12 -19 36 -47 53
-62 31 -25 32 -28 32 -112 0 -48 -3 -98 -7 -112 -4 -14 -1 -32 7 -45 7 -11 14
-47 15 -80 4 -104 6 -134 13 -140 4 -4 3 -18 -2 -31 -6 -14 -6 -26 1 -29 10
-7 9 -75 -2 -75 -4 0 -9 -12 -12 -27 -5 -28 3 -51 26 -75 7 -7 19 -29 26 -48
16 -41 67 -90 126 -121 42 -22 42 -23 54 -103 7 -45 15 -88 18 -96 3 -8 7 -31
9 -50 2 -19 7 -46 11 -60 3 -14 8 -36 9 -50 4 -37 12 -85 14 -85 1 0 4 -16 6
-35 9 -64 11 -75 17 -90 3 -8 6 -22 6 -30 2 -32 7 -65 12 -75 3 -5 7 -28 8
-50 2 -22 6 -47 10 -55 4 -8 9 -33 10 -55 2 -22 5 -44 8 -49 4 -5 8 -27 10
-50 2 -23 6 -48 9 -56 6 -13 9 -36 15 -90 1 -8 6 -35 11 -60 5 -25 10 -55 10
-67 0 -13 5 -23 11 -23 7 0 7 -4 -1 -12 -17 -17 -15 -48 3 -48 8 0 15 -4 15
-8 0 -5 6 -9 13 -10 6 0 23 -3 37 -6 30 -7 89 -16 147 -21 23 -2 47 -6 54 -11
8 -5 10 -3 4 7 -8 12 -6 12 8 0 14 -11 17 -11 17 0 0 9 3 10 8 3 4 -7 47 -10
114 -10 61 1 104 -3 101 -8 -4 -5 0 -5 8 0 8 5 22 7 33 5 12 -2 16 1 11 10 -6
8 -4 10 6 3 18 -11 49 -11 73 -1 14 7 16 6 11 -4 -6 -8 -4 -10 5 -4 7 4 36 10
64 12 28 2 58 7 66 10 8 3 21 5 28 4 6 -1 12 3 12 9 0 5 5 10 11 10 5 0 7 -6
3 -12 -4 -7 4 -3 17 10 19 18 21 24 10 31 -8 6 -9 11 -3 15 6 3 10 14 10 24
-1 16 6 66 16 119 3 11 7 38 10 59 4 22 11 66 17 99 5 33 12 74 15 90 3 17 7
41 10 55 3 14 7 48 11 75 3 28 8 52 12 55 3 3 7 14 8 24 4 55 19 151 23 151 1
0 3 16 5 35 1 20 8 60 14 90 6 30 13 78 17 105 3 28 8 53 10 57 3 4 7 24 10
44 2 21 7 51 10 68 6 27 10 51 13 77 1 4 18 18 39 31 52 36 112 98 118 125 4
13 10 23 15 23 13 0 42 48 44 75 2 13 -3 29 -10 35 -9 8 -12 35 -9 98 7 165
12 217 22 242 10 26 10 68 1 85 -3 6 -5 33 -3 60 1 28 3 65 3 83 1 21 10 42
26 58 14 14 25 29 25 35 0 5 7 12 15 15 8 4 12 10 10 15 -3 5 7 11 22 14 15 4
39 8 52 11 28 6 57 37 72 77 6 15 15 27 19 27 4 0 11 12 16 28 9 34 9 34 18
53 9 20 4 64 -12 100 -26 62 -175 178 -229 179 -7 0 -13 10 -13 23 0 12 -6 34
-14 49 -12 23 -12 29 1 39 21 18 40 61 35 82 -11 50 -102 159 -143 172 -10 4
-19 11 -19 16 0 6 -4 8 -10 4 -5 -3 -7 12 -4 39 3 25 0 61 -6 82 -7 20 -8 39
-4 43 11 7 15 23 20 75 7 70 -63 183 -174 279 -17 15 -36 27 -42 27 -5 0 -10
5 -10 10 0 6 -7 10 -15 10 -8 0 -15 4 -15 9 0 5 -8 11 -17 15 -10 3 -30 14
-45 23 -14 10 -55 35 -90 55 -34 20 -78 51 -97 69 -18 18 -57 44 -86 59 -29
15 -68 41 -86 59 -19 17 -49 41 -66 54 -43 29 -67 80 -66 140 0 26 -3 47 -8
47 -5 0 -35 -25 -66 -56z"/>
</g>
</svg>
